# 3ds Max Wavefront OBJ Exporter v0.97b - (c)2007 guruware
# File Created: 01.06.2019 19:54:31

mtllib shield.mtl

#
# object Cylinder001
#

v  0.0000 0.0635 -0.0000
v  0.4698 0.0430 -0.1710
v  0.5000 0.0430 -0.0000
v  0.3830 0.0430 -0.3214
v  0.2500 0.0430 -0.4330
v  0.0868 0.0430 -0.4924
v  -0.0868 0.0430 -0.4924
v  -0.2500 0.0430 -0.4330
v  -0.3830 0.0430 -0.3214
v  -0.4698 0.0430 -0.1710
v  -0.5000 0.0430 -0.0000
v  -0.4698 0.0430 0.1710
v  -0.3830 0.0430 0.3214
v  -0.2500 0.0430 0.4330
v  -0.0868 0.0430 0.4924
v  0.0868 0.0430 0.4924
v  0.2500 0.0430 0.4330
v  0.3830 0.0430 0.3214
v  0.4698 0.0430 0.1710
v  0.9397 0.0000 -0.3420
v  1.0000 0.0000 -0.0000
v  0.7660 0.0000 -0.6428
v  0.5000 0.0000 -0.8660
v  0.1736 0.0000 -0.9848
v  -0.1736 0.0000 -0.9848
v  -0.5000 0.0000 -0.8660
v  -0.7660 0.0000 -0.6428
v  -0.9397 0.0000 -0.3420
v  -1.0000 0.0000 -0.0000
v  -0.9397 0.0000 0.3420
v  -0.7660 0.0000 0.6428
v  -0.5000 0.0000 0.8660
v  -0.1736 0.0000 0.9848
v  0.1736 0.0000 0.9848
v  0.5000 0.0000 0.8660
v  0.7660 0.0000 0.6428
v  0.9397 0.0000 0.3420
v  0.9397 0.0683 -0.3420
v  1.0000 0.0683 -0.0000
v  0.7660 0.0683 -0.6428
v  0.5000 0.0683 -0.8660
v  0.1736 0.0683 -0.9848
v  -0.1736 0.0683 -0.9848
v  -0.5000 0.0683 -0.8660
v  -0.7660 0.0683 -0.6428
v  -0.9397 0.0683 -0.3420
v  -1.0000 0.0683 -0.0000
v  -0.9397 0.0683 0.3420
v  -0.7660 0.0683 0.6428
v  -0.5000 0.0683 0.8660
v  -0.1736 0.0683 0.9848
v  0.1736 0.0683 0.9848
v  0.5000 0.0683 0.8660
v  0.7660 0.0683 0.6428
v  0.9397 0.0683 0.3420
v  0.8003 0.1000 -0.2913
v  0.8517 0.1000 -0.0000
v  0.6524 0.1000 -0.5475
v  0.4258 0.1000 -0.7376
v  0.1479 0.1000 -0.8387
v  -0.1479 0.1000 -0.8387
v  -0.4258 0.1000 -0.7376
v  -0.6524 0.1000 -0.5475
v  -0.8003 0.1000 -0.2913
v  -0.8517 0.1000 -0.0000
v  -0.8003 0.1000 0.2913
v  -0.6524 0.1000 0.5475
v  -0.4258 0.1000 0.7376
v  -0.1479 0.1000 0.8387
v  0.1479 0.1000 0.8387
v  0.4258 0.1000 0.7376
v  0.6524 0.1000 0.5475
v  0.8003 0.1000 0.2913
v  0.0000 0.1670 -0.0000
v  0.2447 0.1000 0.0000
v  0.2300 0.1000 -0.0837
v  0.1875 0.1000 -0.1573
v  0.1224 0.1000 -0.2119
v  0.0425 0.1000 -0.2410
v  -0.0425 0.1000 -0.2410
v  -0.1224 0.1000 -0.2119
v  -0.1875 0.1000 -0.1573
v  -0.2300 0.1000 -0.0837
v  -0.2447 0.1000 -0.0000
v  -0.2300 0.1000 0.0837
v  -0.1875 0.1000 0.1573
v  -0.1224 0.1000 0.2119
v  -0.0425 0.1000 0.2410
v  0.0425 0.1000 0.2410
v  0.1224 0.1000 0.2119
v  0.1875 0.1000 0.1573
v  0.2300 0.1000 0.0837
v  0.8003 0.0700 -0.2913
v  0.2300 0.0700 -0.0837
v  0.2447 0.0700 0.0000
v  0.8517 0.0700 -0.0000
v  0.6524 0.0700 -0.5475
v  0.1875 0.0700 -0.1573
v  0.4258 0.0700 -0.7376
v  0.1224 0.0700 -0.2119
v  0.1479 0.0700 -0.8387
v  0.0425 0.0700 -0.2410
v  -0.1479 0.0700 -0.8387
v  -0.0425 0.0700 -0.2410
v  -0.4258 0.0700 -0.7376
v  -0.1224 0.0700 -0.2119
v  -0.6524 0.0700 -0.5475
v  -0.1875 0.0700 -0.1573
v  -0.8003 0.0700 -0.2913
v  -0.2300 0.0700 -0.0837
v  -0.8517 0.0700 -0.0000
v  -0.2447 0.0700 -0.0000
v  -0.8003 0.0700 0.2913
v  -0.2300 0.0700 0.0837
v  -0.6524 0.0700 0.5475
v  -0.1875 0.0700 0.1573
v  -0.4258 0.0700 0.7376
v  -0.1224 0.0700 0.2119
v  -0.1479 0.0700 0.8387
v  -0.0425 0.0700 0.2410
v  0.1479 0.0700 0.8387
v  0.0425 0.0700 0.2410
v  0.4258 0.0700 0.7376
v  0.1224 0.0700 0.2119
v  0.6524 0.0700 0.5475
v  0.1875 0.0700 0.1573
v  0.8003 0.0700 0.2913
v  0.2300 0.0700 0.0837
# 128 vertices

vn -0.0000 -1.0000 -0.0000
vn -0.0618 -0.9978 0.0225
vn -0.0658 -0.9978 -0.0000
vn -0.0504 -0.9978 0.0423
vn -0.0329 -0.9978 0.0570
vn -0.0114 -0.9978 0.0648
vn 0.0114 -0.9978 0.0648
vn 0.0329 -0.9978 0.0570
vn 0.0504 -0.9978 0.0423
vn 0.0618 -0.9978 0.0225
vn 0.0658 -0.9978 0.0000
vn 0.0618 -0.9978 -0.0225
vn 0.0504 -0.9978 -0.0423
vn 0.0329 -0.9978 -0.0570
vn 0.0114 -0.9978 -0.0648
vn -0.0114 -0.9978 -0.0648
vn -0.0329 -0.9978 -0.0570
vn -0.0504 -0.9978 -0.0423
vn -0.0618 -0.9978 -0.0225
vn -0.0805 -0.9963 0.0293
vn -0.0857 -0.9963 -0.0000
vn -0.0656 -0.9963 0.0551
vn -0.0428 -0.9963 0.0742
vn -0.0149 -0.9963 0.0843
vn 0.0149 -0.9963 0.0843
vn 0.0428 -0.9963 0.0742
vn 0.0656 -0.9963 0.0551
vn 0.0805 -0.9963 0.0293
vn 0.0857 -0.9963 0.0000
vn 0.0805 -0.9963 -0.0293
vn 0.0656 -0.9963 -0.0551
vn 0.0428 -0.9963 -0.0742
vn 0.0149 -0.9963 -0.0843
vn -0.0149 -0.9963 -0.0843
vn -0.0428 -0.9963 -0.0742
vn -0.0656 -0.9963 -0.0551
vn -0.0805 -0.9963 -0.0293
vn 1.0000 0.0000 0.0000
vn 0.9397 0.0000 -0.3420
vn 0.7660 0.0000 -0.6428
vn 0.5000 0.0000 -0.8660
vn 0.1736 0.0000 -0.9848
vn -0.1736 0.0000 -0.9848
vn -0.5000 0.0000 -0.8660
vn -0.7660 0.0000 -0.6428
vn -0.9397 0.0000 -0.3420
vn -1.0000 0.0000 -0.0000
vn -0.9397 0.0000 0.3420
vn -0.7660 0.0000 0.6428
vn -0.5000 0.0000 0.8660
vn -0.1736 0.0000 0.9848
vn 0.1736 0.0000 0.9848
vn 0.5000 0.0000 0.8660
vn 0.7660 0.0000 0.6428
vn 0.9397 0.0000 0.3420
vn 0.2093 0.9779 0.0000
vn 0.1967 0.9779 -0.0716
vn 0.1603 0.9779 -0.1345
vn 0.1047 0.9779 -0.1813
vn 0.0363 0.9779 -0.2061
vn -0.0363 0.9779 -0.2061
vn -0.1047 0.9779 -0.1813
vn -0.1603 0.9779 -0.1345
vn -0.1967 0.9779 -0.0716
vn -0.2093 0.9779 -0.0000
vn -0.1967 0.9779 0.0716
vn -0.1603 0.9779 0.1345
vn -0.1047 0.9779 0.1813
vn -0.0363 0.9779 0.2061
vn 0.0363 0.9779 0.2061
vn 0.1047 0.9779 0.1813
vn 0.1603 0.9779 0.1345
vn 0.1967 0.9779 0.0716
vn 0.0000 1.0000 -0.0000
vn 0.2639 0.9646 0.0000
vn 0.2480 0.9646 -0.0903
vn 0.2021 0.9646 -0.1696
vn 0.1319 0.9646 -0.2285
vn 0.0458 0.9646 -0.2599
vn -0.0458 0.9646 -0.2599
vn -0.1319 0.9646 -0.2285
vn -0.2021 0.9646 -0.1696
vn -0.2480 0.9646 -0.0903
vn -0.2639 0.9646 -0.0000
vn -0.2480 0.9646 0.0903
vn -0.2021 0.9646 0.1696
vn -0.1319 0.9646 0.2285
vn -0.0458 0.9646 0.2599
vn 0.0458 0.9646 0.2599
vn 0.1319 0.9646 0.2285
vn 0.2021 0.9646 0.1696
vn 0.2480 0.9646 0.0903
vn 0.0000 0.0000 -0.0000
vn -1.0000 0.0000 0.0000
# 94 vertex normals

vt 0.5000 0.0000 0.0000
vt 0.8056 0.0000 0.5000
vt 0.7500 0.0000 0.5000
vt 0.8611 0.0000 0.5000
vt 0.9167 0.0000 0.5000
vt 0.9722 0.0000 0.5000
vt 0.0278 0.0000 0.5000
vt -0.0278 0.0000 0.5000
vt 0.0833 0.0000 0.5000
vt 0.1389 0.0000 0.5000
vt 0.1944 0.0000 0.5000
vt 0.2500 0.0000 0.5000
vt 0.3056 0.0000 0.5000
vt 0.3611 0.0000 0.5000
vt 0.4167 0.0000 0.5000
vt 0.4722 0.0000 0.5000
vt 0.5278 0.0000 0.5000
vt 0.5833 0.0000 0.5000
vt 0.6389 0.0000 0.5000
vt 0.6944 0.0000 0.5000
vt 0.8056 0.0000 1.0000
vt 0.7500 0.0000 1.0000
vt 0.8611 0.0000 1.0000
vt 0.9167 0.0000 1.0000
vt 0.9722 0.0000 1.0000
vt 0.0278 0.0000 1.0000
vt -0.0278 0.0000 1.0000
vt 0.0833 0.0000 1.0000
vt 0.1389 0.0000 1.0000
vt 0.1944 0.0000 1.0000
vt 0.2500 0.0000 1.0000
vt 0.3056 0.0000 1.0000
vt 0.3611 0.0000 1.0000
vt 0.4167 0.0000 1.0000
vt 0.4722 0.0000 1.0000
vt 0.5278 0.0000 1.0000
vt 0.5833 0.0000 1.0000
vt 0.6389 0.0000 1.0000
vt 0.6944 0.0000 1.0000
vt 0.8056 1.0000 1.0000
vt 0.7500 1.0000 1.0000
vt 0.8611 1.0000 1.0000
vt 0.9167 1.0000 1.0000
vt 0.9722 1.0000 1.0000
vt 0.0278 1.0000 1.0000
vt -0.0278 1.0000 1.0000
vt 0.0833 1.0000 1.0000
vt 0.1389 1.0000 1.0000
vt 0.1944 1.0000 1.0000
vt 0.2500 1.0000 1.0000
vt 0.3056 1.0000 1.0000
vt 0.3611 1.0000 1.0000
vt 0.4167 1.0000 1.0000
vt 0.4722 1.0000 1.0000
vt 0.5278 1.0000 1.0000
vt 0.5833 1.0000 1.0000
vt 0.6389 1.0000 1.0000
vt 0.6944 1.0000 1.0000
vt 0.8056 1.0000 0.5000
vt 0.7500 1.0000 0.5000
vt 0.8611 1.0000 0.5000
vt 0.9167 1.0000 0.5000
vt 0.9722 1.0000 0.5000
vt 0.0278 1.0000 0.5000
vt -0.0278 1.0000 0.5000
vt 0.0833 1.0000 0.5000
vt 0.1389 1.0000 0.5000
vt 0.1944 1.0000 0.5000
vt 0.2500 1.0000 0.5000
vt 0.3056 1.0000 0.5000
vt 0.3611 1.0000 0.5000
vt 0.4167 1.0000 0.5000
vt 0.4722 1.0000 0.5000
vt 0.5278 1.0000 0.5000
vt 0.5833 1.0000 0.5000
vt 0.6389 1.0000 0.5000
vt 0.6944 1.0000 0.5000
vt 0.5000 1.0000 0.0000
vt 0.6250 1.0000 0.2500
vt 0.6528 1.0000 0.2500
vt 0.6806 1.0000 0.2500
vt 0.7083 1.0000 0.2500
vt 0.7361 1.0000 0.2500
vt 0.2361 1.0000 0.2500
vt 0.2639 1.0000 0.2500
vt 0.2917 1.0000 0.2500
vt 0.3194 1.0000 0.2500
vt 0.3472 1.0000 0.2500
vt 0.3750 1.0000 0.2500
vt 0.4028 1.0000 0.2500
vt 0.4306 1.0000 0.2500
vt 0.4583 1.0000 0.2500
vt 0.4861 1.0000 0.2500
vt 0.5139 1.0000 0.2500
vt 0.5417 1.0000 0.2500
vt 0.5694 1.0000 0.2500
vt 0.5972 1.0000 0.2500
# 97 texture coords

o Cylinder001
g Cylinder001
usemtl wire_214229166
s 1
f 1/1/1 2/2/2 3/3/3 
f 1/1/1 4/4/4 2/2/2 
f 1/1/1 5/5/5 4/4/4 
f 1/1/1 6/6/6 5/5/5 
f 1/1/1 7/7/7 6/8/6 
f 1/1/1 8/9/8 7/7/7 
f 1/1/1 9/10/9 8/9/8 
f 1/1/1 10/11/10 9/10/9 
f 1/1/1 11/12/11 10/11/10 
f 1/1/1 12/13/12 11/12/11 
f 1/1/1 13/14/13 12/13/12 
f 1/1/1 14/15/14 13/14/13 
f 1/1/1 15/16/15 14/15/14 
f 1/1/1 16/17/16 15/16/15 
f 1/1/1 17/18/17 16/17/16 
f 1/1/1 18/19/18 17/18/17 
f 1/1/1 19/20/19 18/19/18 
f 1/1/1 3/3/3 19/20/19 
f 3/3/3 2/2/2 20/21/20 
f 20/21/20 21/22/21 3/3/3 
f 2/2/2 4/4/4 22/23/22 
f 22/23/22 20/21/20 2/2/2 
f 4/4/4 5/5/5 23/24/23 
f 23/24/23 22/23/22 4/4/4 
f 5/5/5 6/6/6 24/25/24 
f 24/25/24 23/24/23 5/5/5 
f 6/8/6 7/7/7 25/26/25 
f 25/26/25 24/27/24 6/8/6 
f 7/7/7 8/9/8 26/28/26 
f 26/28/26 25/26/25 7/7/7 
f 8/9/8 9/10/9 27/29/27 
f 27/29/27 26/28/26 8/9/8 
f 9/10/9 10/11/10 28/30/28 
f 28/30/28 27/29/27 9/10/9 
f 10/11/10 11/12/11 29/31/29 
f 29/31/29 28/30/28 10/11/10 
f 11/12/11 12/13/12 30/32/30 
f 30/32/30 29/31/29 11/12/11 
f 12/13/12 13/14/13 31/33/31 
f 31/33/31 30/32/30 12/13/12 
f 13/14/13 14/15/14 32/34/32 
f 32/34/32 31/33/31 13/14/13 
f 14/15/14 15/16/15 33/35/33 
f 33/35/33 32/34/32 14/15/14 
f 15/16/15 16/17/16 34/36/34 
f 34/36/34 33/35/33 15/16/15 
f 16/17/16 17/18/17 35/37/35 
f 35/37/35 34/36/34 16/17/16 
f 17/18/17 18/19/18 36/38/36 
f 36/38/36 35/37/35 17/18/17 
f 18/19/18 19/20/19 37/39/37 
f 37/39/37 36/38/36 18/19/18 
f 19/20/19 3/3/3 21/22/21 
f 21/22/21 37/39/37 19/20/19 
s 2
f 21/22/38 20/21/39 38/40/39 
f 38/40/39 39/41/38 21/22/38 
f 20/21/39 22/23/40 40/42/40 
f 40/42/40 38/40/39 20/21/39 
f 22/23/40 23/24/41 41/43/41 
f 41/43/41 40/42/40 22/23/40 
f 23/24/41 24/25/42 42/44/42 
f 42/44/42 41/43/41 23/24/41 
f 24/27/42 25/26/43 43/45/43 
f 43/45/43 42/46/42 24/27/42 
f 25/26/43 26/28/44 44/47/44 
f 44/47/44 43/45/43 25/26/43 
f 26/28/44 27/29/45 45/48/45 
f 45/48/45 44/47/44 26/28/44 
f 27/29/45 28/30/46 46/49/46 
f 46/49/46 45/48/45 27/29/45 
f 28/30/46 29/31/47 47/50/47 
f 47/50/47 46/49/46 28/30/46 
f 29/31/47 30/32/48 48/51/48 
f 48/51/48 47/50/47 29/31/47 
f 30/32/48 31/33/49 49/52/49 
f 49/52/49 48/51/48 30/32/48 
f 31/33/49 32/34/50 50/53/50 
f 50/53/50 49/52/49 31/33/49 
f 32/34/50 33/35/51 51/54/51 
f 51/54/51 50/53/50 32/34/50 
f 33/35/51 34/36/52 52/55/52 
f 52/55/52 51/54/51 33/35/51 
f 34/36/52 35/37/53 53/56/53 
f 53/56/53 52/55/52 34/36/52 
f 35/37/53 36/38/54 54/57/54 
f 54/57/54 53/56/53 35/37/53 
f 36/38/54 37/39/55 55/58/55 
f 55/58/55 54/57/54 36/38/54 
f 37/39/55 21/22/38 39/41/38 
f 39/41/38 55/58/55 37/39/55 
s 1
f 39/41/56 38/40/57 56/59/57 
f 56/59/57 57/60/56 39/41/56 
f 38/40/57 40/42/58 58/61/58 
f 58/61/58 56/59/57 38/40/57 
f 40/42/58 41/43/59 59/62/59 
f 59/62/59 58/61/58 40/42/58 
f 41/43/59 42/44/60 60/63/60 
f 60/63/60 59/62/59 41/43/59 
f 42/46/60 43/45/61 61/64/61 
f 61/64/61 60/65/60 42/46/60 
f 43/45/61 44/47/62 62/66/62 
f 62/66/62 61/64/61 43/45/61 
f 44/47/62 45/48/63 63/67/63 
f 63/67/63 62/66/62 44/47/62 
f 45/48/63 46/49/64 64/68/64 
f 64/68/64 63/67/63 45/48/63 
f 46/49/64 47/50/65 65/69/65 
f 65/69/65 64/68/64 46/49/64 
f 47/50/65 48/51/66 66/70/66 
f 66/70/66 65/69/65 47/50/65 
f 48/51/66 49/52/67 67/71/67 
f 67/71/67 66/70/66 48/51/66 
f 49/52/67 50/53/68 68/72/68 
f 68/72/68 67/71/67 49/52/67 
f 50/53/68 51/54/69 69/73/69 
f 69/73/69 68/72/68 50/53/68 
f 51/54/69 52/55/70 70/74/70 
f 70/74/70 69/73/69 51/54/69 
f 52/55/70 53/56/71 71/75/71 
f 71/75/71 70/74/70 52/55/70 
f 53/56/71 54/57/72 72/76/72 
f 72/76/72 71/75/71 53/56/71 
f 54/57/72 55/58/73 73/77/73 
f 73/77/73 72/76/72 54/57/72 
f 55/58/73 39/41/56 57/60/56 
f 57/60/56 73/77/73 55/58/73 
f 74/78/74 75/79/75 76/80/76 
f 74/78/74 76/80/76 77/81/77 
f 74/78/74 77/81/77 78/82/78 
f 74/78/74 78/82/78 79/83/79 
f 74/78/74 79/84/79 80/85/80 
f 74/78/74 80/85/80 81/86/81 
f 74/78/74 81/86/81 82/87/82 
f 74/78/74 82/87/82 83/88/83 
f 74/78/74 83/88/83 84/89/84 
f 74/78/74 84/89/84 85/90/85 
f 74/78/74 85/90/85 86/91/86 
f 74/78/74 86/91/86 87/92/87 
f 74/78/74 87/92/87 88/93/88 
f 74/78/74 88/93/88 89/94/89 
f 74/78/74 89/94/89 90/95/90 
f 74/78/74 90/95/90 91/96/91 
f 74/78/74 91/96/91 92/97/92 
f 74/78/74 92/97/92 75/79/75 
f 93/59/74 94/80/74 95/79/74 
f 95/79/74 96/60/74 93/59/74 
f 97/61/74 98/81/74 94/80/74 
f 94/80/74 93/59/74 97/61/74 
f 99/62/74 100/82/74 98/81/74 
f 98/81/74 97/61/74 99/62/74 
f 101/63/74 102/83/74 100/82/74 
f 100/82/74 99/62/74 101/63/74 
f 103/64/74 104/85/74 102/84/74 
f 102/84/74 101/65/74 103/64/74 
f 105/66/74 106/86/74 104/85/74 
f 104/85/74 103/64/74 105/66/74 
f 107/67/74 108/87/74 106/86/74 
f 106/86/74 105/66/74 107/67/74 
f 109/68/74 110/88/74 108/87/74 
f 108/87/74 107/67/74 109/68/74 
f 111/69/74 112/89/74 110/88/74 
f 110/88/74 109/68/74 111/69/74 
f 113/70/74 114/90/74 112/89/74 
f 112/89/74 111/69/74 113/70/74 
f 115/71/74 116/91/74 114/90/74 
f 114/90/74 113/70/74 115/71/74 
f 117/72/74 118/92/74 116/91/74 
f 116/91/74 115/71/74 117/72/74 
f 119/73/74 120/93/74 118/92/74 
f 118/92/74 117/72/74 119/73/74 
f 121/74/74 122/94/74 120/93/74 
f 120/93/74 119/73/74 121/74/74 
f 123/75/74 124/95/74 122/94/74 
f 122/94/74 121/74/74 123/75/74 
f 125/76/74 126/96/74 124/95/74 
f 124/95/74 123/75/74 125/76/74 
f 127/77/74 128/97/74 126/96/74 
f 126/96/74 125/76/74 127/77/74 
f 127/77/74 96/60/74 95/79/74 
f 95/79/74 128/97/74 127/77/74 
s off
f 57/60/93 56/59/93 56/59/93 
f 56/59/93 57/60/93 57/60/93 
f 56/59/93 58/61/93 58/61/93 
f 58/61/93 56/59/93 56/59/93 
f 58/61/93 59/62/93 59/62/93 
f 59/62/93 58/61/93 58/61/93 
f 59/62/93 60/63/93 60/63/93 
f 60/63/93 59/62/93 59/62/93 
f 60/65/93 61/64/93 61/64/93 
f 61/64/93 60/65/93 60/65/93 
f 61/64/93 62/66/93 62/66/93 
f 62/66/93 61/64/93 61/64/93 
f 62/66/93 63/67/93 63/67/93 
f 63/67/93 62/66/93 62/66/93 
f 63/67/93 64/68/93 64/68/93 
f 64/68/93 63/67/93 63/67/93 
f 64/68/93 65/69/93 65/69/93 
f 65/69/93 64/68/93 64/68/93 
f 65/69/93 66/70/93 66/70/93 
f 66/70/93 65/69/93 65/69/93 
f 66/70/93 67/71/93 67/71/93 
f 67/71/93 66/70/93 66/70/93 
f 67/71/93 68/72/93 68/72/93 
f 68/72/93 67/71/93 67/71/93 
f 68/72/93 69/73/93 69/73/93 
f 69/73/93 68/72/93 68/72/93 
f 69/73/93 70/74/93 70/74/93 
f 70/74/93 69/73/93 69/73/93 
f 70/74/93 71/75/93 71/75/93 
f 71/75/93 70/74/93 70/74/93 
f 71/75/93 72/76/93 72/76/93 
f 72/76/93 71/75/93 71/75/93 
f 72/76/93 73/77/93 73/77/93 
f 73/77/93 72/76/93 72/76/93 
f 73/77/93 57/60/93 57/60/93 
f 57/60/93 73/77/93 73/77/93 
f 76/80/93 75/79/93 75/79/93 
f 75/79/93 76/80/93 76/80/93 
f 75/79/93 92/97/93 92/97/93 
f 92/97/93 75/79/93 75/79/93 
f 92/97/93 91/96/93 91/96/93 
f 91/96/93 92/97/93 92/97/93 
f 91/96/93 90/95/93 90/95/93 
f 90/95/93 91/96/93 91/96/93 
f 90/95/93 89/94/93 89/94/93 
f 89/94/93 90/95/93 90/95/93 
f 89/94/93 88/93/93 88/93/93 
f 88/93/93 89/94/93 89/94/93 
f 88/93/93 87/92/93 87/92/93 
f 87/92/93 88/93/93 88/93/93 
f 87/92/93 86/91/93 86/91/93 
f 86/91/93 87/92/93 87/92/93 
f 86/91/93 85/90/93 85/90/93 
f 85/90/93 86/91/93 86/91/93 
f 85/90/93 84/89/93 84/89/93 
f 84/89/93 85/90/93 85/90/93 
f 84/89/93 83/88/93 83/88/93 
f 83/88/93 84/89/93 84/89/93 
f 83/88/93 82/87/93 82/87/93 
f 82/87/93 83/88/93 83/88/93 
f 82/87/93 81/86/93 81/86/93 
f 81/86/93 82/87/93 82/87/93 
f 81/86/93 80/85/93 80/85/93 
f 80/85/93 81/86/93 81/86/93 
f 80/85/93 79/84/93 79/84/93 
f 79/84/93 80/85/93 80/85/93 
f 79/83/93 78/82/93 78/82/93 
f 78/82/93 79/83/93 79/83/93 
f 78/82/93 77/81/93 77/81/93 
f 77/81/93 78/82/93 78/82/93 
f 77/81/93 76/80/93 76/80/93 
f 76/80/93 77/81/93 77/81/93 
s 2
f 57/60/47 56/59/48 93/59/48 
f 93/59/48 96/60/47 57/60/47 
f 56/59/48 58/61/49 97/61/49 
f 97/61/49 93/59/48 56/59/48 
f 58/61/49 59/62/50 99/62/50 
f 99/62/50 97/61/49 58/61/49 
f 59/62/50 60/63/51 101/63/51 
f 101/63/51 99/62/50 59/62/50 
f 60/65/51 61/64/52 103/64/52 
f 103/64/52 101/65/51 60/65/51 
f 61/64/52 62/66/53 105/66/53 
f 105/66/53 103/64/52 61/64/52 
f 62/66/53 63/67/54 107/67/54 
f 107/67/54 105/66/53 62/66/53 
f 63/67/54 64/68/55 109/68/55 
f 109/68/55 107/67/54 63/67/54 
f 64/68/55 65/69/38 111/69/38 
f 111/69/38 109/68/55 64/68/55 
f 65/69/38 66/70/39 113/70/39 
f 113/70/39 111/69/38 65/69/38 
f 66/70/39 67/71/40 115/71/40 
f 115/71/40 113/70/39 66/70/39 
f 67/71/40 68/72/41 117/72/41 
f 117/72/41 115/71/40 67/71/40 
f 68/72/41 69/73/42 119/73/42 
f 119/73/42 117/72/41 68/72/41 
f 69/73/42 70/74/43 121/74/43 
f 121/74/43 119/73/42 69/73/42 
f 70/74/43 71/75/44 123/75/44 
f 123/75/44 121/74/43 70/74/43 
f 71/75/44 72/76/45 125/76/45 
f 125/76/45 123/75/44 71/75/44 
f 72/76/45 73/77/46 127/77/46 
f 127/77/46 125/76/45 72/76/45 
f 73/77/46 57/60/47 96/60/47 
f 96/60/47 127/77/46 73/77/46 
f 76/80/39 75/79/38 95/79/38 
f 95/79/38 94/80/39 76/80/39 
f 75/79/38 92/97/55 128/97/55 
f 128/97/55 95/79/38 75/79/38 
f 92/97/55 91/96/54 126/96/54 
f 126/96/54 128/97/55 92/97/55 
f 91/96/54 90/95/53 124/95/53 
f 124/95/53 126/96/54 91/96/54 
f 90/95/53 89/94/52 122/94/52 
f 122/94/52 124/95/53 90/95/53 
f 89/94/52 88/93/51 120/93/51 
f 120/93/51 122/94/52 89/94/52 
f 88/93/51 87/92/50 118/92/50 
f 118/92/50 120/93/51 88/93/51 
f 87/92/50 86/91/49 116/91/49 
f 116/91/49 118/92/50 87/92/50 
f 86/91/49 85/90/48 114/90/48 
f 114/90/48 116/91/49 86/91/49 
f 85/90/48 84/89/94 112/89/47 
f 112/89/47 114/90/48 85/90/48 
f 84/89/94 83/88/46 110/88/46 
f 110/88/46 112/89/47 84/89/94 
f 83/88/46 82/87/45 108/87/45 
f 108/87/45 110/88/46 83/88/46 
f 82/87/45 81/86/44 106/86/44 
f 106/86/44 108/87/45 82/87/45 
f 81/86/44 80/85/43 104/85/43 
f 104/85/43 106/86/44 81/86/44 
f 80/85/43 79/84/42 102/84/42 
f 102/84/42 104/85/43 80/85/43 
f 79/83/42 78/82/41 100/82/41 
f 100/82/41 102/83/42 79/83/42 
f 78/82/41 77/81/40 98/81/40 
f 98/81/40 100/82/41 78/82/41 
f 77/81/40 76/80/39 94/80/39 
f 94/80/39 98/81/40 77/81/40 
# 324 faces

