# 3ds Max Wavefront OBJ Exporter v0.97b - (c)2007 guruware
# File Created: 01.06.2019 15:06:28

mtllib bag.mtl

#
# object Cylinder002
#

v  180.0000 0.0000 -0.0000
v  192.4959 34.8244 0.0000
v  189.4024 34.8244 -34.3715
v  177.1073 0.0000 -32.1402
v  180.2214 34.8244 -67.6382
v  168.5223 0.0000 -63.2475
v  165.2479 34.8244 -98.7310
v  154.5208 0.0000 -92.3219
v  144.9632 34.8244 -126.6505
v  135.5529 0.0000 -118.4290
v  120.0193 34.8244 -150.4994
v  112.2282 0.0000 -140.7297
v  91.2178 34.8244 -169.5110
v  85.2964 0.0000 -158.5072
v  59.4845 34.8244 -183.0745
v  55.6231 0.0000 -171.1902
v  25.8394 34.8244 -190.7538
v  24.1620 0.0000 -178.3710
v  -8.6363 34.8244 -192.3021
v  -8.0756 0.0000 -179.8188
v  -42.8343 34.8244 -187.6697
v  -40.0537 0.0000 -175.4870
v  -75.6557 34.8244 -177.0054
v  -70.7445 0.0000 -165.5150
v  -106.0454 34.8244 -160.6520
v  -99.1614 0.0000 -150.2232
v  -133.0267 34.8244 -139.1351
v  -124.3912 0.0000 -130.1031
v  -155.7325 34.8244 -113.1463
v  -145.6230 0.0000 -105.8014
v  -173.4328 34.8244 -83.5209
v  -162.1744 0.0000 -78.0991
v  -185.5589 34.8244 -51.2110
v  -173.5133 0.0000 -47.8866
v  -191.7210 34.8244 -17.2552
v  -179.2754 0.0000 -16.1351
v  -191.7210 34.8244 17.2552
v  -179.2754 0.0000 16.1351
v  -185.5589 34.8244 51.2111
v  -173.5133 0.0000 47.8867
v  -173.4328 34.8244 83.5209
v  -162.1744 0.0000 78.0991
v  -155.7325 34.8244 113.1463
v  -145.6230 0.0000 105.8014
v  -133.0267 34.8244 139.1351
v  -124.3912 0.0000 130.1031
v  -106.0454 34.8244 160.6520
v  -99.1614 0.0000 150.2232
v  -75.6557 34.8244 177.0054
v  -70.7445 0.0000 165.5150
v  -42.8343 34.8244 187.6697
v  -40.0537 0.0000 175.4870
v  -8.6362 34.8244 192.3021
v  -8.0756 0.0000 179.8188
v  25.8395 34.8244 190.7538
v  24.1621 0.0000 178.3709
v  59.4846 34.8244 183.0745
v  55.6232 0.0000 171.1901
v  91.2179 34.8244 169.5110
v  85.2965 0.0000 158.5071
v  120.0194 34.8244 150.4993
v  112.2283 0.0000 140.7296
v  144.9633 34.8244 126.6504
v  135.5530 0.0000 118.4289
v  165.2480 34.8244 98.7309
v  154.5209 0.0000 92.3217
v  180.2215 34.8244 67.6381
v  168.5223 0.0000 63.2473
v  189.4025 34.8244 34.3713
v  177.1074 0.0000 32.1401
v  159.9786 100.0000 -0.0000
v  157.4077 100.0000 -28.5653
v  149.7776 100.0000 -56.2125
v  137.3335 100.0000 -82.0529
v  120.4754 100.0000 -105.2561
v  99.7451 100.0000 -125.0763
v  75.8089 100.0000 -140.8765
v  49.4361 100.0000 -152.1487
v  21.4745 100.0000 -158.5308
v  -7.1774 100.0000 -159.8176
v  -35.5986 100.0000 -155.9677
v  -62.8756 100.0000 -147.1048
v  -88.1317 100.0000 -133.5139
v  -110.5552 100.0000 -115.6318
v  -129.4254 100.0000 -94.0331
v  -144.1358 100.0000 -69.4121
v  -154.2135 100.0000 -42.5602
v  -159.3346 100.0000 -14.3404
v  -159.3346 100.0000 14.3404
v  -154.2135 100.0000 42.5602
v  -144.1358 100.0000 69.4122
v  -129.4254 100.0000 94.0331
v  -110.5552 100.0000 115.6318
v  -88.1317 100.0000 133.5139
v  -62.8756 100.0000 147.1048
v  -35.5985 100.0000 155.9677
v  -7.1773 100.0000 159.8176
v  21.4745 100.0000 158.5308
v  49.4362 100.0000 152.1487
v  75.8090 100.0000 140.8764
v  99.7452 100.0000 125.0763
v  120.4754 100.0000 105.2561
v  137.3336 100.0000 82.0528
v  149.7776 100.0000 56.2123
v  157.4077 100.0000 28.5651
v  111.8250 150.0000 -0.0000
v  110.0279 150.0000 -19.9671
v  104.6945 150.0000 -39.2925
v  95.9960 150.0000 -57.3550
v  84.2122 150.0000 -73.5740
v  69.7217 150.0000 -87.4283
v  52.9904 150.0000 -98.4726
v  34.5558 150.0000 -106.3519
v  15.0107 150.0000 -110.8129
v  -5.0170 150.0000 -111.7124
v  -24.8834 150.0000 -109.0213
v  -43.9500 150.0000 -102.8262
v  -61.6040 150.0000 -93.3262
v  -77.2780 150.0000 -80.8265
v  -90.4683 150.0000 -65.7291
v  -100.7508 150.0000 -48.5191
v  -107.7951 150.0000 -29.7496
v  -111.3748 150.0000 -10.0239
v  -111.3748 150.0000 10.0239
v  -107.7951 150.0000 29.7496
v  -100.7508 150.0000 48.5191
v  -90.4683 150.0000 65.7291
v  -77.2780 150.0000 80.8266
v  -61.6040 150.0000 93.3262
v  -43.9500 150.0000 102.8262
v  -24.8833 150.0000 109.0213
v  -5.0169 150.0000 111.7124
v  15.0107 150.0000 110.8129
v  34.5559 150.0000 106.3519
v  52.9904 150.0000 98.4725
v  69.7218 150.0000 87.4282
v  84.2123 150.0000 73.5739
v  95.9961 150.0000 57.3549
v  104.6945 150.0000 39.2924
v  110.0279 150.0000 19.9670
v  64.9854 250.3477 -0.0000
v  63.9410 250.3477 -11.6036
v  60.8416 250.3477 -22.8342
v  55.7866 250.3477 -33.3309
v  48.9386 250.3477 -42.7564
v  40.5177 250.3477 -50.8076
v  30.7945 250.3477 -57.2258
v  20.0816 250.3477 -61.8047
v  8.7232 250.3477 -64.3972
v  -2.9155 250.3477 -64.9199
v  -14.4606 250.3477 -63.3560
v  -25.5408 250.3477 -59.7558
v  -35.8002 250.3477 -54.2350
v  -44.9089 250.3477 -46.9711
v  -52.5742 250.3477 -38.1974
v  -58.5497 250.3477 -28.1961
v  -62.6434 250.3477 -17.2885
v  -64.7237 250.3477 -5.8252
v  -64.7237 250.3477 5.8252
v  -62.6434 250.3477 17.2885
v  -58.5497 250.3477 28.1961
v  -52.5742 250.3477 38.1974
v  -44.9089 250.3477 46.9711
v  -35.8002 250.3477 54.2350
v  -25.5408 250.3477 59.7558
v  -14.4605 250.3477 63.3560
v  -2.9155 250.3477 64.9199
v  8.7233 250.3477 64.3972
v  20.0816 250.3477 61.8047
v  30.7946 250.3477 57.2258
v  40.5178 250.3477 50.8075
v  48.9387 250.3477 42.7563
v  55.7866 250.3477 33.3309
v  60.8416 250.3477 22.8341
v  63.9410 250.3477 11.6035
# 175 vertices

vn -0.9412 0.3377 0.0000
vn -0.9983 -0.0578 0.0000
vn -0.9823 -0.0578 0.1783
vn -0.9261 0.3377 0.1681
vn -0.9347 -0.0578 0.3508
vn -0.8812 0.3377 0.3307
vn -0.8570 -0.0578 0.5120
vn -0.8080 0.3377 0.4828
vn -0.7518 -0.0578 0.6568
vn -0.7088 0.3377 0.6193
vn -0.6224 -0.0578 0.7805
vn -0.5869 0.3377 0.7359
vn -0.4731 -0.0578 0.8791
vn -0.4460 0.3377 0.8289
vn -0.3085 -0.0578 0.9495
vn -0.2909 0.3377 0.8952
vn -0.1340 -0.0578 0.9893
vn -0.1263 0.3377 0.9327
vn 0.0448 -0.0578 0.9973
vn 0.0422 0.3377 0.9403
vn 0.2221 -0.0578 0.9733
vn 0.2094 0.3377 0.9176
vn 0.3924 -0.0578 0.9180
vn 0.3699 0.3377 0.8655
vn 0.5500 -0.0578 0.8332
vn 0.5185 0.3377 0.7855
vn 0.6899 -0.0578 0.7216
vn 0.6505 0.3377 0.6803
vn 0.8077 -0.0578 0.5868
vn 0.7615 0.3377 0.5532
vn 0.8995 -0.0578 0.4332
vn 0.8480 0.3377 0.4084
vn 0.9624 -0.0578 0.2656
vn 0.9073 0.3377 0.2504
vn 0.9943 -0.0578 0.0895
vn 0.9374 0.3377 0.0844
vn 0.9943 -0.0578 -0.0895
vn 0.9374 0.3377 -0.0844
vn 0.9624 -0.0578 -0.2656
vn 0.9073 0.3377 -0.2504
vn 0.8995 -0.0578 -0.4332
vn 0.8480 0.3377 -0.4084
vn 0.8077 -0.0578 -0.5868
vn 0.7615 0.3377 -0.5532
vn 0.6899 -0.0578 -0.7216
vn 0.6505 0.3377 -0.6803
vn 0.5500 -0.0578 -0.8332
vn 0.5185 0.3377 -0.7855
vn 0.3924 -0.0578 -0.9180
vn 0.3699 0.3377 -0.8655
vn 0.2221 -0.0578 -0.9733
vn 0.2094 0.3377 -0.9176
vn 0.0448 -0.0578 -0.9973
vn 0.0422 0.3377 -0.9403
vn -0.1340 -0.0578 -0.9893
vn -0.1263 0.3377 -0.9327
vn -0.3085 -0.0578 -0.9495
vn -0.2909 0.3377 -0.8952
vn -0.4731 -0.0578 -0.8791
vn -0.4460 0.3377 -0.8289
vn -0.6224 -0.0578 -0.7805
vn -0.5869 0.3377 -0.7359
vn -0.7518 -0.0578 -0.6568
vn -0.7088 0.3377 -0.6193
vn -0.8570 -0.0578 -0.5120
vn -0.8080 0.3377 -0.4828
vn -0.9347 -0.0578 -0.3508
vn -0.8812 0.3377 -0.3307
vn -0.9823 -0.0578 -0.1783
vn -0.9261 0.3377 -0.1681
vn -0.8198 -0.5727 0.0000
vn -0.8066 -0.5727 0.1464
vn -0.7675 -0.5727 0.2881
vn -0.7037 -0.5727 0.4205
vn -0.6174 -0.5727 0.5394
vn -0.5111 -0.5727 0.6409
vn -0.3885 -0.5727 0.7219
vn -0.2533 -0.5727 0.7797
vn -0.1100 -0.5727 0.8124
vn 0.0368 -0.5727 0.8190
vn 0.1824 -0.5727 0.7992
vn 0.3222 -0.5727 0.7538
vn 0.4516 -0.5727 0.6842
vn 0.5665 -0.5727 0.5925
vn 0.6632 -0.5727 0.4819
vn 0.7386 -0.5727 0.3557
vn 0.7902 -0.5727 0.2181
vn 0.8165 -0.5727 0.0735
vn 0.8165 -0.5727 -0.0735
vn 0.7902 -0.5727 -0.2181
vn 0.7386 -0.5727 -0.3557
vn 0.6632 -0.5727 -0.4819
vn 0.5665 -0.5727 -0.5925
vn 0.4516 -0.5727 -0.6842
vn 0.3222 -0.5727 -0.7538
vn 0.1824 -0.5727 -0.7992
vn 0.0368 -0.5727 -0.8190
vn -0.1100 -0.5727 -0.8124
vn -0.2533 -0.5727 -0.7797
vn -0.3885 -0.5727 -0.7219
vn -0.5111 -0.5727 -0.6409
vn -0.6174 -0.5727 -0.5394
vn -0.7037 -0.5727 -0.4205
vn -0.7675 -0.5727 -0.2881
vn -0.8066 -0.5727 -0.1464
vn -0.8214 -0.5704 0.0000
vn -0.8082 -0.5704 0.1467
vn -0.7690 -0.5704 0.2886
vn -0.7051 -0.5704 0.4213
vn -0.6185 -0.5704 0.5404
vn -0.5121 -0.5704 0.6422
vn -0.3892 -0.5704 0.7233
vn -0.2538 -0.5704 0.7812
vn -0.1103 -0.5704 0.8139
vn 0.0368 -0.5704 0.8205
vn 0.1828 -0.5704 0.8008
vn 0.3228 -0.5704 0.7553
vn 0.4525 -0.5704 0.6855
vn 0.5676 -0.5704 0.5937
vn 0.6645 -0.5704 0.4828
vn 0.7400 -0.5704 0.3564
vn 0.7918 -0.5704 0.2185
vn 0.8180 -0.5704 0.0736
vn 0.8180 -0.5704 -0.0736
vn 0.7918 -0.5704 -0.2185
vn 0.7400 -0.5704 -0.3564
vn 0.6645 -0.5704 -0.4828
vn 0.5676 -0.5704 -0.5937
vn 0.4525 -0.5704 -0.6855
vn 0.3228 -0.5704 -0.7553
vn 0.1828 -0.5704 -0.8008
vn 0.0368 -0.5704 -0.8205
vn -0.1103 -0.5704 -0.8139
vn -0.2538 -0.5704 -0.7812
vn -0.3892 -0.5704 -0.7233
vn -0.5121 -0.5704 -0.6422
vn -0.6185 -0.5704 -0.5404
vn -0.7051 -0.5704 -0.4213
vn -0.7690 -0.5704 -0.2886
vn -0.8082 -0.5704 -0.1467
vn -0.9061 -0.4230 0.0000
vn -0.8916 -0.4230 0.1618
vn -0.8484 -0.4230 0.3184
vn -0.7779 -0.4230 0.4648
vn -0.6824 -0.4230 0.5962
vn -0.5650 -0.4230 0.7085
vn -0.4294 -0.4230 0.7979
vn -0.2800 -0.4230 0.8618
vn -0.1216 -0.4230 0.8979
vn 0.0407 -0.4230 0.9052
vn 0.2016 -0.4230 0.8834
vn 0.3561 -0.4230 0.8332
vn 0.4992 -0.4230 0.7562
vn 0.6262 -0.4230 0.6550
vn 0.7331 -0.4230 0.5326
vn 0.8164 -0.4230 0.3932
vn 0.8735 -0.4230 0.2411
vn 0.9025 -0.4230 0.0812
vn 0.9025 -0.4230 -0.0812
vn 0.8735 -0.4230 -0.2411
vn 0.8164 -0.4230 -0.3932
vn 0.7331 -0.4230 -0.5326
vn 0.6262 -0.4230 -0.6550
vn 0.4992 -0.4230 -0.7562
vn 0.3561 -0.4230 -0.8332
vn 0.2016 -0.4230 -0.8834
vn 0.0407 -0.4230 -0.9052
vn -0.1216 -0.4230 -0.8979
vn -0.2800 -0.4230 -0.8618
vn -0.4294 -0.4230 -0.7979
vn -0.5650 -0.4230 -0.7085
vn -0.6824 -0.4230 -0.5962
vn -0.7779 -0.4230 -0.4648
vn -0.8484 -0.4230 -0.3184
vn -0.8916 -0.4230 -0.1618
# 175 vertex normals

vt 0.7500 0.0000 1.0000
vt 0.7500 0.2500 1.0000
vt 0.7786 0.2500 1.0000
vt 0.7786 0.0000 1.0000
vt 0.8071 0.2500 1.0000
vt 0.8071 0.0000 1.0000
vt 0.8357 0.2500 1.0000
vt 0.8357 0.0000 1.0000
vt 0.8643 0.2500 1.0000
vt 0.8643 0.0000 1.0000
vt 0.8929 0.2500 1.0000
vt 0.8929 0.0000 1.0000
vt 0.9214 0.2500 1.0000
vt 0.9214 0.0000 1.0000
vt 0.9500 0.2500 1.0000
vt 0.9500 0.0000 1.0000
vt 0.9786 0.2500 1.0000
vt 0.9786 0.0000 1.0000
vt -0.0214 0.0000 1.0000
vt -0.0214 0.2500 1.0000
vt 0.0071 0.2500 1.0000
vt 0.0071 0.0000 1.0000
vt 0.0357 0.2500 1.0000
vt 0.0357 0.0000 1.0000
vt 0.0643 0.2500 1.0000
vt 0.0643 0.0000 1.0000
vt 0.0929 0.2500 1.0000
vt 0.0929 0.0000 1.0000
vt 0.1214 0.2500 1.0000
vt 0.1214 0.0000 1.0000
vt 0.1500 0.2500 1.0000
vt 0.1500 0.0000 1.0000
vt 0.1786 0.2500 1.0000
vt 0.1786 0.0000 1.0000
vt 0.2071 0.2500 1.0000
vt 0.2071 0.0000 1.0000
vt 0.2357 0.2500 1.0000
vt 0.2357 0.0000 1.0000
vt 0.2643 0.2500 1.0000
vt 0.2643 0.0000 1.0000
vt 0.2929 0.2500 1.0000
vt 0.2929 0.0000 1.0000
vt 0.3214 0.2500 1.0000
vt 0.3214 0.0000 1.0000
vt 0.3500 0.2500 1.0000
vt 0.3500 0.0000 1.0000
vt 0.3786 0.2500 1.0000
vt 0.3786 0.0000 1.0000
vt 0.4071 0.2500 1.0000
vt 0.4071 0.0000 1.0000
vt 0.4357 0.2500 1.0000
vt 0.4357 0.0000 1.0000
vt 0.4643 0.2500 1.0000
vt 0.4643 0.0000 1.0000
vt 0.4929 0.2500 1.0000
vt 0.4929 0.0000 1.0000
vt 0.5214 0.2500 1.0000
vt 0.5214 0.0000 1.0000
vt 0.5500 0.2500 1.0000
vt 0.5500 0.0000 1.0000
vt 0.5786 0.2500 1.0000
vt 0.5786 0.0000 1.0000
vt 0.6071 0.2500 1.0000
vt 0.6071 0.0000 1.0000
vt 0.6357 0.2500 1.0000
vt 0.6357 0.0000 1.0000
vt 0.6643 0.2500 1.0000
vt 0.6643 0.0000 1.0000
vt 0.6929 0.2500 1.0000
vt 0.6929 0.0000 1.0000
vt 0.7214 0.2500 1.0000
vt 0.7214 0.0000 1.0000
vt 0.7500 0.5000 1.0000
vt 0.7786 0.5000 1.0000
vt 0.8071 0.5000 1.0000
vt 0.8357 0.5000 1.0000
vt 0.8643 0.5000 1.0000
vt 0.8929 0.5000 1.0000
vt 0.9214 0.5000 1.0000
vt 0.9500 0.5000 1.0000
vt 0.9786 0.5000 1.0000
vt -0.0214 0.5000 1.0000
vt 0.0071 0.5000 1.0000
vt 0.0357 0.5000 1.0000
vt 0.0643 0.5000 1.0000
vt 0.0929 0.5000 1.0000
vt 0.1214 0.5000 1.0000
vt 0.1500 0.5000 1.0000
vt 0.1786 0.5000 1.0000
vt 0.2071 0.5000 1.0000
vt 0.2357 0.5000 1.0000
vt 0.2643 0.5000 1.0000
vt 0.2929 0.5000 1.0000
vt 0.3214 0.5000 1.0000
vt 0.3500 0.5000 1.0000
vt 0.3786 0.5000 1.0000
vt 0.4071 0.5000 1.0000
vt 0.4357 0.5000 1.0000
vt 0.4643 0.5000 1.0000
vt 0.4929 0.5000 1.0000
vt 0.5214 0.5000 1.0000
vt 0.5500 0.5000 1.0000
vt 0.5786 0.5000 1.0000
vt 0.6071 0.5000 1.0000
vt 0.6357 0.5000 1.0000
vt 0.6643 0.5000 1.0000
vt 0.6929 0.5000 1.0000
vt 0.7214 0.5000 1.0000
vt 0.7500 0.7500 1.0000
vt 0.7786 0.7500 1.0000
vt 0.8071 0.7500 1.0000
vt 0.8357 0.7500 1.0000
vt 0.8643 0.7500 1.0000
vt 0.8929 0.7500 1.0000
vt 0.9214 0.7500 1.0000
vt 0.9500 0.7500 1.0000
vt 0.9786 0.7500 1.0000
vt -0.0214 0.7500 1.0000
vt 0.0071 0.7500 1.0000
vt 0.0357 0.7500 1.0000
vt 0.0643 0.7500 1.0000
vt 0.0929 0.7500 1.0000
vt 0.1214 0.7500 1.0000
vt 0.1500 0.7500 1.0000
vt 0.1786 0.7500 1.0000
vt 0.2071 0.7500 1.0000
vt 0.2357 0.7500 1.0000
vt 0.2643 0.7500 1.0000
vt 0.2929 0.7500 1.0000
vt 0.3214 0.7500 1.0000
vt 0.3500 0.7500 1.0000
vt 0.3786 0.7500 1.0000
vt 0.4071 0.7500 1.0000
vt 0.4357 0.7500 1.0000
vt 0.4643 0.7500 1.0000
vt 0.4929 0.7500 1.0000
vt 0.5214 0.7500 1.0000
vt 0.5500 0.7500 1.0000
vt 0.5786 0.7500 1.0000
vt 0.6071 0.7500 1.0000
vt 0.6357 0.7500 1.0000
vt 0.6643 0.7500 1.0000
vt 0.6929 0.7500 1.0000
vt 0.7214 0.7500 1.0000
vt 0.7500 1.0000 1.0000
vt 0.7786 1.0000 1.0000
vt 0.8071 1.0000 1.0000
vt 0.8357 1.0000 1.0000
vt 0.8643 1.0000 1.0000
vt 0.8929 1.0000 1.0000
vt 0.9214 1.0000 1.0000
vt 0.9500 1.0000 1.0000
vt 0.9786 1.0000 1.0000
vt -0.0214 1.0000 1.0000
vt 0.0071 1.0000 1.0000
vt 0.0357 1.0000 1.0000
vt 0.0643 1.0000 1.0000
vt 0.0929 1.0000 1.0000
vt 0.1214 1.0000 1.0000
vt 0.1500 1.0000 1.0000
vt 0.1786 1.0000 1.0000
vt 0.2071 1.0000 1.0000
vt 0.2357 1.0000 1.0000
vt 0.2643 1.0000 1.0000
vt 0.2929 1.0000 1.0000
vt 0.3214 1.0000 1.0000
vt 0.3500 1.0000 1.0000
vt 0.3786 1.0000 1.0000
vt 0.4071 1.0000 1.0000
vt 0.4357 1.0000 1.0000
vt 0.4643 1.0000 1.0000
vt 0.4929 1.0000 1.0000
vt 0.5214 1.0000 1.0000
vt 0.5500 1.0000 1.0000
vt 0.5786 1.0000 1.0000
vt 0.6071 1.0000 1.0000
vt 0.6357 1.0000 1.0000
vt 0.6643 1.0000 1.0000
vt 0.6929 1.0000 1.0000
vt 0.7214 1.0000 1.0000
# 180 texture coords

o Cylinder002
g Cylinder002
usemtl wire_049030031
s 8
f 1/1/1 2/2/2 3/3/3 4/4/4 
f 4/4/4 3/3/3 5/5/5 6/6/6 
f 6/6/6 5/5/5 7/7/7 8/8/8 
f 8/8/8 7/7/7 9/9/9 10/10/10 
f 10/10/10 9/9/9 11/11/11 12/12/12 
f 12/12/12 11/11/11 13/13/13 14/14/14 
f 14/14/14 13/13/13 15/15/15 16/16/16 
f 16/16/16 15/15/15 17/17/17 18/18/18 
f 18/19/18 17/20/17 19/21/19 20/22/20 
f 20/22/20 19/21/19 21/23/21 22/24/22 
f 22/24/22 21/23/21 23/25/23 24/26/24 
f 24/26/24 23/25/23 25/27/25 26/28/26 
f 26/28/26 25/27/25 27/29/27 28/30/28 
f 28/30/28 27/29/27 29/31/29 30/32/30 
f 30/32/30 29/31/29 31/33/31 32/34/32 
f 32/34/32 31/33/31 33/35/33 34/36/34 
f 34/36/34 33/35/33 35/37/35 36/38/36 
f 36/38/36 35/37/35 37/39/37 38/40/38 
f 38/40/38 37/39/37 39/41/39 40/42/40 
f 40/42/40 39/41/39 41/43/41 42/44/42 
f 42/44/42 41/43/41 43/45/43 44/46/44 
f 44/46/44 43/45/43 45/47/45 46/48/46 
f 46/48/46 45/47/45 47/49/47 48/50/48 
f 48/50/48 47/49/47 49/51/49 50/52/50 
f 50/52/50 49/51/49 51/53/51 52/54/52 
f 52/54/52 51/53/51 53/55/53 54/56/54 
f 54/56/54 53/55/53 55/57/55 56/58/56 
f 56/58/56 55/57/55 57/59/57 58/60/58 
f 58/60/58 57/59/57 59/61/59 60/62/60 
f 60/62/60 59/61/59 61/63/61 62/64/62 
f 62/64/62 61/63/61 63/65/63 64/66/64 
f 64/66/64 63/65/63 65/67/65 66/68/66 
f 66/68/66 65/67/65 67/69/67 68/70/68 
f 68/70/68 67/69/67 69/71/69 70/72/70 
f 70/72/70 69/71/69 2/2/2 1/1/1 
f 2/2/2 71/73/71 72/74/72 3/3/3 
f 3/3/3 72/74/72 73/75/73 5/5/5 
f 5/5/5 73/75/73 74/76/74 7/7/7 
f 7/7/7 74/76/74 75/77/75 9/9/9 
f 9/9/9 75/77/75 76/78/76 11/11/11 
f 11/11/11 76/78/76 77/79/77 13/13/13 
f 13/13/13 77/79/77 78/80/78 15/15/15 
f 15/15/15 78/80/78 79/81/79 17/17/17 
f 17/20/17 79/82/79 80/83/80 19/21/19 
f 19/21/19 80/83/80 81/84/81 21/23/21 
f 21/23/21 81/84/81 82/85/82 23/25/23 
f 23/25/23 82/85/82 83/86/83 25/27/25 
f 25/27/25 83/86/83 84/87/84 27/29/27 
f 27/29/27 84/87/84 85/88/85 29/31/29 
f 29/31/29 85/88/85 86/89/86 31/33/31 
f 31/33/31 86/89/86 87/90/87 33/35/33 
f 33/35/33 87/90/87 88/91/88 35/37/35 
f 35/37/35 88/91/88 89/92/89 37/39/37 
f 37/39/37 89/92/89 90/93/90 39/41/39 
f 39/41/39 90/93/90 91/94/91 41/43/41 
f 41/43/41 91/94/91 92/95/92 43/45/43 
f 43/45/43 92/95/92 93/96/93 45/47/45 
f 45/47/45 93/96/93 94/97/94 47/49/47 
f 47/49/47 94/97/94 95/98/95 49/51/49 
f 49/51/49 95/98/95 96/99/96 51/53/51 
f 51/53/51 96/99/96 97/100/97 53/55/53 
f 53/55/53 97/100/97 98/101/98 55/57/55 
f 55/57/55 98/101/98 99/102/99 57/59/57 
f 57/59/57 99/102/99 100/103/100 59/61/59 
f 59/61/59 100/103/100 101/104/101 61/63/61 
f 61/63/61 101/104/101 102/105/102 63/65/63 
f 63/65/63 102/105/102 103/106/103 65/67/65 
f 65/67/65 103/106/103 104/107/104 67/69/67 
f 67/69/67 104/107/104 105/108/105 69/71/69 
f 69/71/69 105/108/105 71/73/71 2/2/2 
f 71/73/71 106/109/106 107/110/107 72/74/72 
f 72/74/72 107/110/107 108/111/108 73/75/73 
f 73/75/73 108/111/108 109/112/109 74/76/74 
f 74/76/74 109/112/109 110/113/110 75/77/75 
f 75/77/75 110/113/110 111/114/111 76/78/76 
f 76/78/76 111/114/111 112/115/112 77/79/77 
f 77/79/77 112/115/112 113/116/113 78/80/78 
f 78/80/78 113/116/113 114/117/114 79/81/79 
f 79/82/79 114/118/114 115/119/115 80/83/80 
f 80/83/80 115/119/115 116/120/116 81/84/81 
f 81/84/81 116/120/116 117/121/117 82/85/82 
f 82/85/82 117/121/117 118/122/118 83/86/83 
f 83/86/83 118/122/118 119/123/119 84/87/84 
f 84/87/84 119/123/119 120/124/120 85/88/85 
f 85/88/85 120/124/120 121/125/121 86/89/86 
f 86/89/86 121/125/121 122/126/122 87/90/87 
f 87/90/87 122/126/122 123/127/123 88/91/88 
f 88/91/88 123/127/123 124/128/124 89/92/89 
f 89/92/89 124/128/124 125/129/125 90/93/90 
f 90/93/90 125/129/125 126/130/126 91/94/91 
f 91/94/91 126/130/126 127/131/127 92/95/92 
f 92/95/92 127/131/127 128/132/128 93/96/93 
f 93/96/93 128/132/128 129/133/129 94/97/94 
f 94/97/94 129/133/129 130/134/130 95/98/95 
f 95/98/95 130/134/130 131/135/131 96/99/96 
f 96/99/96 131/135/131 132/136/132 97/100/97 
f 97/100/97 132/136/132 133/137/133 98/101/98 
f 98/101/98 133/137/133 134/138/134 99/102/99 
f 99/102/99 134/138/134 135/139/135 100/103/100 
f 100/103/100 135/139/135 136/140/136 101/104/101 
f 101/104/101 136/140/136 137/141/137 102/105/102 
f 102/105/102 137/141/137 138/142/138 103/106/103 
f 103/106/103 138/142/138 139/143/139 104/107/104 
f 104/107/104 139/143/139 140/144/140 105/108/105 
f 105/108/105 140/144/140 106/109/106 71/73/71 
f 106/109/106 141/145/141 142/146/142 107/110/107 
f 107/110/107 142/146/142 143/147/143 108/111/108 
f 108/111/108 143/147/143 144/148/144 109/112/109 
f 109/112/109 144/148/144 145/149/145 110/113/110 
f 110/113/110 145/149/145 146/150/146 111/114/111 
f 111/114/111 146/150/146 147/151/147 112/115/112 
f 112/115/112 147/151/147 148/152/148 113/116/113 
f 113/116/113 148/152/148 149/153/149 114/117/114 
f 114/118/114 149/154/149 150/155/150 115/119/115 
f 115/119/115 150/155/150 151/156/151 116/120/116 
f 116/120/116 151/156/151 152/157/152 117/121/117 
f 117/121/117 152/157/152 153/158/153 118/122/118 
f 118/122/118 153/158/153 154/159/154 119/123/119 
f 119/123/119 154/159/154 155/160/155 120/124/120 
f 120/124/120 155/160/155 156/161/156 121/125/121 
f 121/125/121 156/161/156 157/162/157 122/126/122 
f 122/126/122 157/162/157 158/163/158 123/127/123 
f 123/127/123 158/163/158 159/164/159 124/128/124 
f 124/128/124 159/164/159 160/165/160 125/129/125 
f 125/129/125 160/165/160 161/166/161 126/130/126 
f 126/130/126 161/166/161 162/167/162 127/131/127 
f 127/131/127 162/167/162 163/168/163 128/132/128 
f 128/132/128 163/168/163 164/169/164 129/133/129 
f 129/133/129 164/169/164 165/170/165 130/134/130 
f 130/134/130 165/170/165 166/171/166 131/135/131 
f 131/135/131 166/171/166 167/172/167 132/136/132 
f 132/136/132 167/172/167 168/173/168 133/137/133 
f 133/137/133 168/173/168 169/174/169 134/138/134 
f 134/138/134 169/174/169 170/175/170 135/139/135 
f 135/139/135 170/175/170 171/176/171 136/140/136 
f 136/140/136 171/176/171 172/177/172 137/141/137 
f 137/141/137 172/177/172 173/178/173 138/142/138 
f 138/142/138 173/178/173 174/179/174 139/143/139 
f 139/143/139 174/179/174 175/180/175 140/144/140 
f 140/144/140 175/180/175 141/145/141 106/109/106 
# 140 polygons

